<?xml version="1.0" encoding="utf-8"?>
<!-- Generator: Adobe Illustrator 26.0.1, SVG Export Plug-In . SVG Version: 6.00 Build 0)  -->
<svg version="1.1" id="Layer_1" xmlns="http://www.w3.org/2000/svg" xmlns:xlink="http://www.w3.org/1999/xlink" x="0px" y="0px"
	 viewBox="0 0 100 30" style="enable-background:new 0 0 100 30;" xml:space="preserve">
<style type="text/css">
	.st0{clip-path:url(#SVGID_00000060745171012341297970000016589390428038561154_);}
	.st1{clip-path:url(#SVGID_00000031171216706257702350000012082801851541793158_);enable-background:new    ;}
	.st2{clip-path:url(#SVGID_00000129919473696548339190000011443572101656784017_);}
	.st3{clip-path:url(#SVGID_00000081645438823116477440000011934973050786355633_);fill:#EF7B22;}
	.st4{clip-path:url(#SVGID_00000000224025842509955710000009721920276747327155_);}
	.st5{clip-path:url(#SVGID_00000043418504737466963540000016894903921467922617_);enable-background:new    ;}
	.st6{clip-path:url(#SVGID_00000018957335567200679170000000568714954334519730_);}
	.st7{clip-path:url(#SVGID_00000073681554360691871060000016919809513521068188_);fill:#EF7B22;}
	.st8{clip-path:url(#SVGID_00000062892298037978874200000007702045629551866765_);}
	.st9{clip-path:url(#SVGID_00000028301860575218139410000008879433904657646516_);fill:#EF7C25;}
	.st10{clip-path:url(#SVGID_00000090274558635017691960000017787363674015955111_);}
	.st11{clip-path:url(#SVGID_00000089547582211017983390000011146367279162268301_);fill:#EF7C25;}
	.st12{clip-path:url(#SVGID_00000057149443861693838580000003704231642882613888_);}
	.st13{clip-path:url(#SVGID_00000177460622722951677330000009851846658077171846_);enable-background:new    ;}
	.st14{clip-path:url(#SVGID_00000179634461856292638110000014949525771984187037_);}
	.st15{clip-path:url(#SVGID_00000025424532655777818020000008558148436617554311_);fill:#FFFFFF;}
</style>
<g>
	<g>
		<defs>
			<path id="SVGID_1_" d="M95.5,26.9c0,1.1,0.8,1.9,1.8,1.9c1,0,1.8-0.8,1.8-1.9c0-1.1-0.8-1.9-1.8-1.9C96.2,25,95.5,25.8,95.5,26.9
				z M95.1,26.9c0-1.4,1-2.3,2.2-2.3c1.2,0,2.2,0.9,2.2,2.3c0,1.4-1,2.3-2.2,2.3C96.1,29.2,95.1,28.3,95.1,26.9z"/>
		</defs>
		<clipPath id="SVGID_00000172413604797134014900000014054982485174206654_">
			<use xlink:href="#SVGID_1_"  style="overflow:visible;"/>
		</clipPath>
		<g style="clip-path:url(#SVGID_00000172413604797134014900000014054982485174206654_);">
			<defs>
				<rect id="SVGID_00000000940235863763501320000000094558363450656659_" x="-98.4" y="-3216.8" width="1268.3" height="8533.3"/>
			</defs>
			<clipPath id="SVGID_00000179605798730176448100000010705769379337951667_">
				<use xlink:href="#SVGID_00000000940235863763501320000000094558363450656659_"  style="overflow:visible;"/>
			</clipPath>
			<g style="clip-path:url(#SVGID_00000179605798730176448100000010705769379337951667_);enable-background:new    ;">
				<g>
					<defs>
						<rect id="SVGID_00000083776439085221913140000003012484521701004962_" x="94.5" y="23.5" width="5.8" height="5.8"/>
					</defs>
					<clipPath id="SVGID_00000137817889832625387220000001005081993461982342_">
						<use xlink:href="#SVGID_00000083776439085221913140000003012484521701004962_"  style="overflow:visible;"/>
					</clipPath>
					<g style="clip-path:url(#SVGID_00000137817889832625387220000001005081993461982342_);">
						<defs>
							<rect id="SVGID_00000019667054110955917250000008867614450468630670_" x="94.5" y="23.5" width="5.8" height="5.8"/>
						</defs>
						<clipPath id="SVGID_00000110472822907268941210000008252928397488785577_">
							<use xlink:href="#SVGID_00000019667054110955917250000008867614450468630670_"  style="overflow:visible;"/>
						</clipPath>
						
							<rect x="81.9" y="11.2" style="clip-path:url(#SVGID_00000110472822907268941210000008252928397488785577_);fill:#EF7B22;" width="30.8" height="31.5"/>
					</g>
				</g>
			</g>
		</g>
	</g>
	<g>
		<defs>
			<path id="SVGID_00000047055873382001853190000000098826321015150264_" d="M96.8,25.9v0.8h0.5c0.4,0,0.5-0.2,0.5-0.4
				c0-0.2-0.1-0.4-0.5-0.4H96.8z M96.4,25.5h1c0.6,0,0.8,0.3,0.8,0.8c0,0.3-0.2,0.6-0.5,0.6v0c0.2,0,0.3,0.2,0.4,0.6
				c0,0.2,0.1,0.7,0.2,0.8h-0.5c-0.1-0.3-0.1-0.6-0.2-0.9c-0.1-0.2-0.2-0.3-0.4-0.3h-0.4v1.2h-0.4V25.5z"/>
		</defs>
		<clipPath id="SVGID_00000039852601915940518890000001705482205719850908_">
			<use xlink:href="#SVGID_00000047055873382001853190000000098826321015150264_"  style="overflow:visible;"/>
		</clipPath>
		<g style="clip-path:url(#SVGID_00000039852601915940518890000001705482205719850908_);">
			<defs>
				<rect id="SVGID_00000047039026332664417430000010637930627144404145_" x="-98.4" y="-3216.8" width="1268.3" height="8533.3"/>
			</defs>
			<clipPath id="SVGID_00000160892070585332910230000010019891764964273059_">
				<use xlink:href="#SVGID_00000047039026332664417430000010637930627144404145_"  style="overflow:visible;"/>
			</clipPath>
			<g style="clip-path:url(#SVGID_00000160892070585332910230000010019891764964273059_);enable-background:new    ;">
				<g>
					<defs>
						<rect id="SVGID_00000109027427848813353660000013537467980373599419_" x="95.7" y="24.7" width="3.5" height="4.7"/>
					</defs>
					<clipPath id="SVGID_00000086671160507020158830000001720622644437752230_">
						<use xlink:href="#SVGID_00000109027427848813353660000013537467980373599419_"  style="overflow:visible;"/>
					</clipPath>
					<g style="clip-path:url(#SVGID_00000086671160507020158830000001720622644437752230_);">
						<defs>
							<rect id="SVGID_00000140734049147516106870000017635821325153272205_" x="95.7" y="24.7" width="3.5" height="4.7"/>
						</defs>
						<clipPath id="SVGID_00000007405877421396404390000003425121704737872053_">
							<use xlink:href="#SVGID_00000140734049147516106870000017635821325153272205_"  style="overflow:visible;"/>
						</clipPath>
						
							<rect x="83.2" y="12.1" style="clip-path:url(#SVGID_00000007405877421396404390000003425121704737872053_);fill:#EF7B22;" width="28.2" height="29.7"/>
					</g>
				</g>
			</g>
		</g>
	</g>
	<g>
		<defs>
			<polygon id="SVGID_00000090278405229284634500000008868521224505104051_" points="84.7,10.7 81,15 77.2,10.7 69.1,10.7 
				76.8,19.7 69.1,28.6 76.9,28.6 80.7,24.2 84.5,28.6 92.6,28.6 84.8,19.6 92.5,10.7 			"/>
		</defs>
		<clipPath id="SVGID_00000172403320464567977060000018425566519909872030_">
			<use xlink:href="#SVGID_00000090278405229284634500000008868521224505104051_"  style="overflow:visible;"/>
		</clipPath>
		<g style="clip-path:url(#SVGID_00000172403320464567977060000018425566519909872030_);">
			<defs>
				<rect id="SVGID_00000132790991167215316550000005046805309348832930_" x="-98.4" y="-3216.8" width="1268.3" height="8533.3"/>
			</defs>
			<clipPath id="SVGID_00000130646369378271927540000003752586889461724558_">
				<use xlink:href="#SVGID_00000132790991167215316550000005046805309348832930_"  style="overflow:visible;"/>
			</clipPath>
			
				<rect x="63.2" y="4.8" style="clip-path:url(#SVGID_00000130646369378271927540000003752586889461724558_);fill:#EF7C25;" width="35.2" height="29.6"/>
		</g>
	</g>
	<g>
		<defs>
			<polygon id="SVGID_00000163071153133239273780000001922359228937496987_" points="54,0.3 54,28.6 69.1,28.6 69.1,22.3 60.4,22.3 
				60.4,16.7 69.1,16.7 69.1,10.7 60.4,10.7 60.4,6.7 69.1,6.7 69.1,0.3 			"/>
		</defs>
		<clipPath id="SVGID_00000081629524483363418280000011442407778770175619_">
			<use xlink:href="#SVGID_00000163071153133239273780000001922359228937496987_"  style="overflow:visible;"/>
		</clipPath>
		<g style="clip-path:url(#SVGID_00000081629524483363418280000011442407778770175619_);">
			<defs>
				<rect id="SVGID_00000085208441914131565820000012897363286851571623_" x="-98.4" y="-3216.8" width="1268.3" height="8533.3"/>
			</defs>
			<clipPath id="SVGID_00000158712313463632799860000002820358735833989782_">
				<use xlink:href="#SVGID_00000085208441914131565820000012897363286851571623_"  style="overflow:visible;"/>
			</clipPath>
			
				<rect x="48.1" y="-5.5" style="clip-path:url(#SVGID_00000158712313463632799860000002820358735833989782_);fill:#EF7C25;" width="26.8" height="40"/>
		</g>
	</g>
	<g>
		<defs>
			<path id="SVGID_00000150801780273340814940000010333194194031563942_" d="M39.9,19.7c0,2.4,1.5,4.6,3.8,4.6
				c2.6,0,3.7-2.2,3.7-4.6c0-2.5-1-5-3.7-5C41.2,14.7,39.9,17.1,39.9,19.7z M24.5,13.9c-1.7,0-3,1.2-3.4,3h6.9
				C27.6,15,26.3,13.9,24.5,13.9z M47.6,0.3H54v28.3h-6.4v-1.8h-0.1c-1.2,1.8-3.1,2.9-5.1,2.9c-4.8,0-8.3-4-8.9-8.7H20.9
				c0,2.1,1.7,3.8,3.6,3.8c1.7,0,2.3-0.4,3.1-1.6h6.2c-1.6,4.1-4.7,6.4-9.3,6.4c-5.5,0-9.9-4.1-9.9-10c0-1,0.1-1.9,0.3-2.8H7.7v11.9
				H0.5V0.3h16.1v6.3H7.7v4h8.1v3.7c1.6-3,4.7-4.8,8.6-4.8c4.8,0,8.1,2.6,9.4,7c1.1-3.9,4.3-6.9,8.5-6.9c2,0,3.8,0.6,5.2,2.3h0.1
				V0.3z"/>
		</defs>
		<clipPath id="SVGID_00000012432917018318530690000007491289889078363060_">
			<use xlink:href="#SVGID_00000150801780273340814940000010333194194031563942_"  style="overflow:visible;"/>
		</clipPath>
		<g style="clip-path:url(#SVGID_00000012432917018318530690000007491289889078363060_);">
			<defs>
				<rect id="SVGID_00000182522734265929865010000013602646589431943599_" x="-98.4" y="-3216.8" width="1268.3" height="8533.3"/>
			</defs>
			<clipPath id="SVGID_00000117637863963463178370000003385632000899624332_">
				<use xlink:href="#SVGID_00000182522734265929865010000013602646589431943599_"  style="overflow:visible;"/>
			</clipPath>
			<g style="clip-path:url(#SVGID_00000117637863963463178370000003385632000899624332_);enable-background:new    ;">
				<g>
					<defs>
						<rect id="SVGID_00000150784269484340149400000011425557252721522576_" x="-0.2" y="0.1" width="54.9" height="30.4"/>
					</defs>
					<clipPath id="SVGID_00000164472898482455882840000006982908800501050540_">
						<use xlink:href="#SVGID_00000150784269484340149400000011425557252721522576_"  style="overflow:visible;"/>
					</clipPath>
					<g style="clip-path:url(#SVGID_00000164472898482455882840000006982908800501050540_);">
						<defs>
							<rect id="SVGID_00000161590574234276202200000003767783895392121998_" x="-0.2" y="0.1" width="54.9" height="30.4"/>
						</defs>
						<clipPath id="SVGID_00000106149049071885871020000012457811584900960425_">
							<use xlink:href="#SVGID_00000161590574234276202200000003767783895392121998_"  style="overflow:visible;"/>
						</clipPath>
						
							<rect x="-12.7" y="-13.1" style="clip-path:url(#SVGID_00000106149049071885871020000012457811584900960425_);fill:#FFFFFF;" width="79.8" height="56.2"/>
					</g>
				</g>
			</g>
		</g>
	</g>
</g>
</svg>
