<?xml version="1.0" encoding="utf-8"?>
<!-- Generator: Adobe Illustrator 26.0.1, SVG Export Plug-In . SVG Version: 6.00 Build 0)  -->
<svg version="1.1" id="Layer_1" xmlns="http://www.w3.org/2000/svg" xmlns:xlink="http://www.w3.org/1999/xlink" x="0px" y="0px"
	 viewBox="0 0 30 30" style="enable-background:new 0 0 30 30;" xml:space="preserve">
<style type="text/css">
	.st0{fill:#FFFFFF;}
	.st1{clip-path:url(#SVGID_00000008111000245704215080000009158317722963136168_);}
	.st2{clip-path:url(#SVGID_00000026123385753104563460000015911357245910655624_);enable-background:new    ;}
	.st3{clip-path:url(#SVGID_00000152966348013793438850000012897909078514320820_);}
	.st4{clip-path:url(#SVGID_00000121986695713183763090000017220333253572238484_);}
</style>
<g>
	<path class="st0" d="M15,29.6C7,29.6,0.5,23.1,0.5,15C0.5,6.9,7,0.4,15,0.4S29.5,6.9,29.5,15C29.5,23.1,23,29.6,15,29.6z M15,2.1
		C8,2.1,2.3,7.9,2.3,15C2.3,22.1,8,27.9,15,27.9S27.7,22.1,27.7,15C27.7,7.9,22,2.1,15,2.1z"/>
</g>
<g>
	<defs>
		<path id="SVGID_1_" d="M15,28.7c7.5,0,13.6-6.2,13.6-13.7S22.5,1.3,15,1.3C7.5,1.3,1.4,7.4,1.4,15S7.5,28.7,15,28.7z"/>
	</defs>
	<clipPath id="SVGID_00000001664519407941150740000003771976751600255879_">
		<use xlink:href="#SVGID_1_"  style="overflow:visible;"/>
	</clipPath>
	<g style="clip-path:url(#SVGID_00000001664519407941150740000003771976751600255879_);">
		<defs>
			<rect id="SVGID_00000011748218415657357560000010327145790093176254_" x="-1057.9" y="-5732.2" width="1280.7" height="8616.8"/>
		</defs>
		<clipPath id="SVGID_00000026164392289895097980000007059028688424467132_">
			<use xlink:href="#SVGID_00000011748218415657357560000010327145790093176254_"  style="overflow:visible;"/>
		</clipPath>
		<g style="clip-path:url(#SVGID_00000026164392289895097980000007059028688424467132_);enable-background:new    ;">
			<g>
				<defs>
					<rect id="SVGID_00000139996130727050953690000012511386290129932423_" x="0.9" y="0.9" width="28.3" height="28.3"/>
				</defs>
				<clipPath id="SVGID_00000099634208869039209210000001106028138764576395_">
					<use xlink:href="#SVGID_00000139996130727050953690000012511386290129932423_"  style="overflow:visible;"/>
				</clipPath>
				<g style="clip-path:url(#SVGID_00000099634208869039209210000001106028138764576395_);">
					<defs>
						<rect id="SVGID_00000057863811332723542700000015317383151429109933_" x="0.9" y="0.9" width="28.3" height="28.3"/>
					</defs>
					<clipPath id="SVGID_00000029747639704273659920000001492035041926477220_">
						<use xlink:href="#SVGID_00000057863811332723542700000015317383151429109933_"  style="overflow:visible;"/>
					</clipPath>
					<g style="clip-path:url(#SVGID_00000029747639704273659920000001492035041926477220_);">
						<path class="st0" d="M15,29.6C7,29.6,0.5,23.1,0.5,15S7,0.4,15,0.4c8,0,14.5,6.6,14.5,14.6S23,29.6,15,29.6z M15,2.1
							C8,2.1,2.3,7.9,2.3,15S8,27.9,15,27.9c7,0,12.7-5.8,12.7-12.9S22,2.1,15,2.1z"/>
					</g>
					<g style="clip-path:url(#SVGID_00000029747639704273659920000001492035041926477220_);">
						<path class="st0" d="M25.8,30.3H4.9v-6.9c0-2.1,1.7-3.9,3.6-4l3.7-0.5v-0.6c-1.4-1-2.2-2.5-2.2-4.3v-3c0-2.9,2.4-5.3,5.3-5.3
							c2.9,0,5.3,2.4,5.3,5.3v3c0,1.7-0.8,3.3-2.2,4.3V19l3.7,0.5c2,0,3.6,1.8,3.6,4V30.3z M6.6,28.6H24v-5.1c0-1.1-0.9-2.2-1.9-2.2
							l-0.1,0l-5.3-0.8v-3.1l0.5-0.3c1.1-0.6,1.8-1.8,1.8-3v-3c0-1.9-1.6-3.5-3.6-3.5c-1.9,0-3.6,1.6-3.6,3.5v3c0,1.3,0.7,2.4,1.8,3
							l0.4,0.3v3.1l-5.4,0.8c-1,0-1.9,1-1.9,2.2V28.6z"/>
					</g>
				</g>
			</g>
		</g>
	</g>
</g>
</svg>
